<?xml version="1.0" standalone="no"?>
<!DOCTYPE svg PUBLIC "-//W3C//DTD SVG 20010904//EN"
 "http://www.w3.org/TR/2001/REC-SVG-20010904/DTD/svg10.dtd">
<svg version="1.0" xmlns="http://www.w3.org/2000/svg"
 width="500.000000pt" height="500.000000pt" viewBox="0 0 500.000000 500.000000"
 preserveAspectRatio="xMidYMid meet">

<g transform="translate(0.000000,500.000000) scale(0.100000,-0.100000)"
fill="#000000" stroke="none">
<path d="M425 2943 c-11 -2 -30 -6 -43 -9 -12 -2 -40 -21 -62 -40 -62 -56 -70
-98 -70 -350 0 -232 7 -274 58 -328 48 -50 75 -56 272 -56 l180 0 0 80 0 80
-154 0 c-85 0 -162 3 -171 6 -37 14 -45 57 -45 228 0 102 4 175 11 190 17 37
58 46 215 46 l144 0 0 80 0 80 -157 -1 c-87 -1 -167 -3 -178 -6z"/>
<path d="M3417 2943 c-11 -10 -8 -546 3 -563 6 -10 10 85 10 278 0 160 -1 292
-3 292 -2 0 -7 -3 -10 -7z"/>
<path d="M3037 2873 c-4 -3 -7 -22 -7 -40 l0 -34 63 3 62 3 3 38 3 37 -59 0
c-32 0 -62 -3 -65 -7z"/>
<path d="M1115 2741 c-239 -9 -245 -16 -245 -297 0 -186 7 -221 50 -259 20
-18 39 -20 191 -23 l169 -3 0 68 0 68 -129 -3 c-143 -3 -161 3 -161 59 l0 29
145 0 145 0 0 70 0 70 -145 0 -145 0 0 24 c0 56 1 56 151 56 l139 0 0 75 c0
41 -1 74 -2 73 -2 -1 -75 -4 -163 -7z"/>
<path d="M2175 2741 c-105 -4 -168 -11 -183 -19 -13 -8 -32 -32 -43 -55 -16
-36 -19 -67 -19 -225 0 -278 4 -282 254 -282 l156 0 0 68 0 67 -124 -3 c-146
-4 -166 2 -166 53 l0 35 145 0 145 0 0 70 0 70 -146 0 -145 0 3 38 3 37 143 3
142 3 0 74 c0 41 -1 74 -2 73 -2 -1 -75 -4 -163 -7z"/>
<path d="M1410 2670 l0 -70 95 0 c76 0 97 -3 101 -15 4 -10 -29 -59 -92 -137
-122 -150 -123 -151 -124 -215 0 -42 4 -54 19 -63 12 -6 100 -10 215 -10 l196
0 0 70 0 69 -117 3 c-73 2 -118 7 -120 14 -2 6 46 73 106 148 112 140 131 177
117 231 -4 15 -17 30 -32 35 -14 6 -102 10 -195 10 l-169 0 0 -70z"/>
<path d="M2460 2450 l0 -290 65 0 65 0 0 220 0 220 84 0 c107 0 137 -23 106
-81 -9 -16 -22 -19 -74 -19 l-64 0 -4 -65 -3 -65 51 0 c68 0 81 -17 101 -124
l16 -86 67 0 67 0 -23 117 c-14 65 -32 125 -41 135 -15 17 -15 20 8 44 22 23
24 34 24 119 0 85 -2 96 -24 119 -36 38 -79 46 -258 46 l-163 0 0 -290z"/>
<path d="M3030 2450 l0 -290 65 0 65 0 0 290 0 290 -65 0 -65 0 0 -290z"/>
<path d="M4758 2606 c4 -66 2 -75 -23 -104 -15 -18 -22 -32 -17 -32 6 0 20 12
31 26 17 21 21 41 21 93 0 36 -4 71 -8 78 -4 6 -6 -21 -4 -61z"/>
<path d="M4141 2620 c0 -8 4 -24 9 -35 5 -13 9 -14 9 -5 0 8 -4 24 -9 35 -5
13 -9 14 -9 5z"/>
<path d="M3961 2553 c-11 -38 -39 -139 -62 -226 l-42 -158 -226 3 c-216 3
-228 4 -265 26 -29 17 -36 19 -25 6 32 -38 70 -44 303 -44 205 0 225 2 230 18
3 9 23 87 46 172 66 251 69 258 88 263 13 4 12 5 -5 6 -19 1 -25 -9 -42 -66z"/>
<path d="M4437 2613 c-4 -3 -7 -74 -7 -157 0 -193 18 -185 22 9 l3 140 87 0
c47 0 84 3 81 8 -5 9 -177 10 -186 0z"/>
<path d="M4161 2550 c0 -8 4 -24 9 -35 5 -13 9 -14 9 -5 0 8 -4 24 -9 35 -5
13 -9 14 -9 5z"/>
<path d="M4181 2480 c0 -8 4 -24 9 -35 5 -13 9 -14 9 -5 0 8 -4 24 -9 35 -5
13 -9 14 -9 5z"/>
<path d="M4201 2410 c0 -8 4 -24 9 -35 5 -13 9 -14 9 -5 0 8 -4 24 -9 35 -5
13 -9 14 -9 5z"/>
<path d="M4510 2404 c60 -8 130 -8 130 -1 0 4 -35 6 -77 6 -43 -1 -67 -3 -53
-5z"/>
<path d="M4772 2342 c-2 -76 -21 -124 -58 -149 -24 -15 -57 -19 -214 -24
l-185 -5 180 -2 c154 -2 185 1 215 16 54 27 72 67 67 154 l-3 73 -2 -63z"/>
<path d="M4221 2340 c0 -8 4 -24 9 -35 5 -13 9 -14 9 -5 0 8 -4 24 -9 35 -5
13 -9 14 -9 5z"/>
<path d="M3717 2313 c-11 -10 -8 -113 3 -113 6 0 10 27 10 60 0 61 -1 65 -13
53z"/>
<path d="M4241 2270 c0 -8 4 -24 9 -35 5 -13 9 -14 9 -5 0 8 -4 24 -9 35 -5
13 -9 14 -9 5z"/>
<path d="M4264 2193 c4 -21 0 -22 -63 -26 l-66 -3 73 -2 c74 -2 77 -1 61 33
-9 19 -9 19 -5 -2z"/>
</g>
</svg>
