<?xml version="1.0" standalone="no"?>
<!DOCTYPE svg PUBLIC "-//W3C//DTD SVG 20010904//EN"
 "http://www.w3.org/TR/2001/REC-SVG-20010904/DTD/svg10.dtd">
<svg version="1.0" xmlns="http://www.w3.org/2000/svg"
 width="2000.000000pt" height="1338.000000pt" viewBox="0 0 2000.000000 1338.000000"
 preserveAspectRatio="xMidYMid meet">

<g transform="translate(0.000000,1338.000000) scale(0.100000,-0.100000)"
fill="#000000" stroke="none">
<path d="M15868 9967 c-175 -53 -313 -189 -375 -369 -31 -92 -35 -240 -8 -333
74 -257 334 -442 591 -421 244 19 452 189 514 418 28 102 25 250 -6 339 -59
167 -195 304 -363 363 -89 31 -254 33 -353 3z m317 -97 c76 -26 142 -69 197
-128 90 -96 128 -194 128 -327 0 -223 -151 -408 -376 -461 -322 -75 -635 238
-560 560 40 168 149 292 308 352 85 31 219 33 303 4z"/>
<path d="M15960 9707 c-65 -18 -115 -52 -155 -104 -147 -193 -26 -464 215
-480 72 -5 152 18 203 60 l27 23 -35 34 c-30 29 -38 33 -53 22 -60 -43 -135
-53 -200 -27 -143 60 -165 257 -38 344 74 51 151 53 221 5 l38 -25 34 33 34
33 -34 32 c-57 51 -173 74 -257 50z"/>
<path d="M5545 9514 c-214 -13 -386 -44 -566 -104 -592 -197 -1035 -634 -1215
-1200 -104 -324 -124 -726 -53 -1045 87 -387 261 -703 526 -955 236 -224 492
-371 809 -464 445 -131 992 -106 1417 63 299 119 567 317 776 575 172 212 318
526 370 800 69 355 46 728 -65 1047 -72 212 -183 413 -315 574 -71 87 -234
246 -316 308 -271 206 -630 348 -973 386 -113 12 -311 20 -395 15z m405 -378
c223 -37 418 -111 592 -223 322 -208 558 -530 649 -887 38 -150 51 -256 51
-431 1 -288 -47 -507 -163 -736 -174 -347 -462 -604 -830 -740 -360 -132 -817
-132 -1175 0 -434 160 -746 469 -913 906 -68 179 -94 338 -93 570 0 234 29
395 102 580 170 428 484 733 910 885 111 40 266 76 390 90 101 12 375 4 480
-14z"/>
<path d="M10085 9514 c-217 -13 -383 -44 -577 -108 -294 -97 -541 -249 -746
-455 -201 -203 -332 -407 -427 -665 -83 -226 -118 -429 -118 -696 0 -372 76
-674 244 -969 185 -327 454 -579 806 -755 536 -268 1298 -272 1828 -9 124 61
292 176 403 274 l93 83 -131 130 -130 131 -62 -61 c-266 -258 -631 -394 -1060
-394 -746 0 -1361 457 -1547 1150 -51 189 -66 462 -36 663 75 501 374 918 819
1144 286 144 601 203 931 174 359 -32 635 -151 900 -388 l59 -54 128 128 128
127 -33 34 c-50 53 -174 153 -262 213 -209 142 -538 258 -820 288 -118 12
-305 19 -390 15z"/>
<path d="M12440 7590 l0 -1900 1265 0 1265 0 0 175 0 175 -1060 0 -1060 0 0
1723 0 1723 -205 3 -205 2 0 -1901z"/>
</g>
</svg>
